<?xml version="1.0" encoding="UTF-8"?>
<svg id="Layer_1" xmlns="http://www.w3.org/2000/svg" version="1.1" viewBox="0 0 800 800">
  <!-- Generator: Adobe Illustrator 29.5.1, SVG Export Plug-In . SVG Version: 2.1.0 Build 141)  -->
  <defs>
    <style>
      .st0 {
        fill-rule: evenodd;
      }

      .st0, .st1 {
        fill: #5dc19a;
      }
    </style>
  </defs>
  <path class="st1" d="M216.67,266.67c27.61,0,50-22.39,50-50s-22.39-50-50-50-50,22.39-50,50,22.39,50,50,50Z"/>
  <path class="st1" d="M166.67,333.33c0-18.41,14.92-33.33,33.33-33.33h33.33c18.41,0,33.33,14.92,33.33,33.33v266.67c0,18.41-14.92,33.33-33.33,33.33h-33.33c-18.41,0-33.33-14.92-33.33-33.33v-266.67Z"/>
  <path class="st1" d="M366.67,633.33h33.33c18.41,0,33.33-14.92,33.33-33.33v-150c0-50,100-83.33,100-16.67v166.68c0,18.41,14.92,33.32,33.33,33.32h33.33c18.41,0,33.33-14.92,33.33-33.33v-200c0-66.67-50-100-116.67-100s-83.33,50-83.33,50v-16.67c0-18.41-14.92-33.33-33.33-33.33h-33.33c-18.41,0-33.33,14.92-33.33,33.33v266.67c0,18.41,14.92,33.33,33.33,33.33Z"/>
  <path class="st0" d="M666.67,33.33c55.23,0,100,44.77,100,100v533.33c0,55.23-44.77,100-100,100H133.33c-55.23,0-100-44.77-100-100V133.33c0-55.23,44.77-100,100-100h533.33ZM666.67,100c18.41,0,33.33,14.92,33.33,33.33v533.33c0,18.41-14.92,33.33-33.33,33.33H133.33c-18.41,0-33.33-14.92-33.33-33.33V133.33c0-18.41,14.92-33.33,33.33-33.33h533.33Z"/>
</svg>