<?xml version="1.0" encoding="UTF-8"?>
<svg id="Layer_1" xmlns="http://www.w3.org/2000/svg" version="1.1" viewBox="0 0 800 800">
  <!-- Generator: Adobe Illustrator 29.5.1, SVG Export Plug-In . SVG Version: 2.1.0 Build 141)  -->
  <defs>
    <style>
      .st0 {
        fill: #5dc19a;
        fill-rule: evenodd;
      }
    </style>
  </defs>
  <path class="st0" d="M316.54,237.73c-10.32-5.9-22.99-5.85-33.27.11-10.28,5.96-16.6,16.95-16.6,28.83v266.67c0,11.88,6.33,22.87,16.6,28.83,10.28,5.96,22.95,6.01,33.27.11l233.33-133.33c10.39-5.93,16.8-16.98,16.8-28.94s-6.41-23.01-16.8-28.94l-233.33-133.33ZM466.15,400l-132.81,75.89v-151.79l132.81,75.89Z"/>
  <path class="st0" d="M0,400c0-124.99,0-187.49,31.83-231.3,10.28-14.15,22.72-26.59,36.87-36.87,43.81-31.83,106.31-31.83,231.3-31.83h200c124.99,0,187.49,0,231.3,31.83,14.15,10.28,26.59,22.72,36.87,36.87,31.83,43.81,31.83,106.31,31.83,231.3s0,187.49-31.83,231.3c-10.28,14.15-22.72,26.59-36.87,36.87-43.81,31.83-106.31,31.83-231.3,31.83h-200c-124.99,0-187.49,0-231.3-31.83-14.15-10.28-26.59-22.72-36.87-36.87C0,587.49,0,524.99,0,400ZM300,166.67h200c63.98,0,106.61.09,138.91,3.59,31.05,3.36,44.56,9.23,53.2,15.51,8.49,6.17,15.95,13.63,22.12,22.12,6.28,8.65,12.14,22.15,15.51,53.2,3.5,32.3,3.59,74.93,3.59,138.91s-.09,106.61-3.59,138.91c-3.37,31.05-9.23,44.56-15.51,53.2-6.17,8.49-13.64,15.95-22.12,22.12-8.65,6.28-22.15,12.14-53.2,15.51-32.3,3.5-74.93,3.59-138.91,3.59h-200c-63.98,0-106.61-.09-138.91-3.59-31.05-3.37-44.55-9.23-53.2-15.51-8.49-6.17-15.96-13.64-22.12-22.12-6.28-8.65-12.14-22.15-15.51-53.2-3.5-32.3-3.59-74.93-3.59-138.91s.09-106.61,3.59-138.91c3.36-31.05,9.23-44.55,15.51-53.2,6.17-8.49,13.63-15.96,22.12-22.12,8.65-6.28,22.15-12.14,53.2-15.51,32.3-3.5,74.93-3.59,138.91-3.59Z"/>
</svg>